<svg width="316" height="182" viewBox="0 0 316 182" version="1.1" xmlns="http://www.w3.org/2000/svg" xmlns:xlink="http://www.w3.org/1999/xlink">
<title>Group</title>
<desc>Created using Figma</desc>
<g id="Canvas" transform="translate(197 -433)">
<g id="Group">
<g id="Front">
<g id="Group 3 Copy">
<g id="Group Copy">
<g id="Triangle 1">
<use xlink:href="#path0_fill" transform="translate(-193 439.875)" fill="#1FC5B6"/>
<use xlink:href="#path1_stroke" transform="translate(-193 439.875)" fill="#1FC5B6"/>
</g>
<g id="Path 5">
<use xlink:href="#path2_stroke" transform="translate(-7.97765 440.631)" fill="#1FC5B6"/>
</g>
<g id="Path 5 Copy">
<use xlink:href="#path3_stroke" transform="translate(25.9714 438.816)" fill="#1FC5B6"/>
</g>
<g id="Path 5 Copy 2">
<use xlink:href="#path4_stroke" transform="translate(58.2228 437)" fill="#1FC5B6"/>
</g>
</g>
</g>
</g>
</g>
</g>
<defs>
<path id="path0_fill" fill-rule="evenodd" d="M 150.524 1.44845e-07L 301.048 171.125L 0 171.125L 150.524 1.44845e-07Z"/>
<path id="path1_stroke" d="M 150.524 1.44845e-07L 153.104 -2.26957C 152.452 -3.01126 151.512 -3.43633 150.524 -3.43633C 149.536 -3.43633 148.596 -3.01126 147.944 -2.26957L 150.524 1.44845e-07ZM 301.048 171.125L 301.048 174.562C 302.398 174.562 303.622 173.771 304.179 172.541C 304.735 171.311 304.519 169.869 303.628 168.856L 301.048 171.125ZM 0 171.125L -2.58019 168.856C -3.47179 169.869 -3.6873 171.311 -3.13108 172.541C -2.57486 173.771 -1.34996 174.562 0 174.562L 0 171.125ZM 147.944 2.26957L 298.467 173.395L 303.628 168.856L 153.104 -2.26957L 147.944 2.26957ZM 301.048 167.689L 0 167.689L 0 174.562L 301.048 174.562L 301.048 167.689ZM 2.58019 173.395L 153.104 2.26957L 147.944 -2.26957L -2.58019 168.856L 2.58019 173.395Z"/>
<path id="path2_stroke" d="M 2.59196 -2.25611C 1.34595 -3.68762 -0.824614 -3.83799 -2.25612 -2.59197C -3.68762 -1.34595 -3.83799 0.824608 -2.59197 2.25611L 2.59196 -2.25611ZM 110.962 132.714C 112.208 134.145 114.378 134.296 115.81 133.05C 117.241 131.804 117.392 129.633 116.146 128.202L 110.962 132.714ZM -2.59197 2.25611L 110.962 132.714L 116.146 128.202L 2.59196 -2.25611L -2.59197 2.25611Z"/>
<path id="path3_stroke" d="M 2.59196 -2.25611C 1.34594 -3.68762 -0.824618 -3.83799 -2.25612 -2.59197C -3.68763 -1.34595 -3.83799 0.824609 -2.59198 2.25611L 2.59196 -2.25611ZM 82.5733 100.099C 83.8193 101.531 85.9899 101.681 87.4214 100.435C 88.8529 99.1893 89.0033 97.0188 87.7572 95.5872L 82.5733 100.099ZM -2.59198 2.25611L 82.5733 100.099L 87.7572 95.5872L 2.59196 -2.25611L -2.59198 2.25611Z"/>
<path id="path4_stroke" d="M 2.59196 -2.25611C 1.34594 -3.68762 -0.824617 -3.83799 -2.25612 -2.59197C -3.68763 -1.34595 -3.83799 0.824609 -2.59198 2.25611L 2.59196 -2.25611ZM 54.1849 67.485C 55.4309 68.9165 57.6014 69.0669 59.033 67.8209C 60.4645 66.5749 60.6148 64.4043 59.3688 62.9728L 54.1849 67.485ZM -2.59198 2.25611L 54.1849 67.485L 59.3688 62.9728L 2.59196 -2.25611L -2.59198 2.25611Z"/>
</defs>
</svg>
