<svg width="100" height="100" viewBox="0 0 100 100" fill="none" xmlns="http://www.w3.org/2000/svg">
<path d="M50 18C43.671 18 37.4841 19.8768 32.2218 23.393C26.9594 26.9092 22.8579 31.9069 20.4359 37.7541C18.0139 43.6014 17.3802 50.0355 18.6149 56.2429C19.8496 62.4503 22.8973 68.1521 27.3726 72.6274C31.8479 77.1027 37.5497 80.1504 43.7571 81.3851C49.9645 82.6198 56.3986 81.9861 62.2459 79.5641C68.0931 77.1421 73.0908 73.0406 76.607 67.7782C80.1232 62.5159 82 56.329 82 50C81.9896 41.5163 78.6149 33.383 72.616 27.384C66.617 21.3851 58.4838 18.0104 50 18V18ZM78.8653 50C78.8653 55.709 77.1724 61.2898 74.0006 66.0367C70.8289 70.7836 66.3207 74.4833 61.0463 76.6681C55.7718 78.8528 49.968 79.4244 44.3687 78.3107C38.7693 77.1969 33.626 74.4477 29.5892 70.4108C25.5523 66.374 22.8031 61.2307 21.6893 55.6313C20.5756 50.032 21.1472 44.2282 23.3319 38.9537C25.5167 33.6793 29.2164 29.1711 33.9633 25.9994C38.7102 22.8276 44.291 21.1347 50 21.1347C57.6529 21.1433 64.9899 24.1873 70.4013 29.5987C75.8127 35.0101 78.8567 42.3471 78.8653 50V50Z" fill="#2F80ED" fill-opacity="0.2"/>
<path d="M66.2547 58.7379C66.0841 58.6218 65.8924 58.5404 65.6903 58.4985C65.4883 58.4567 65.2799 58.4551 65.0773 58.4939C64.8746 58.5328 64.6816 58.6112 64.5093 58.7248C64.3371 58.8384 64.189 58.9849 64.0735 59.1559C63.5575 59.9265 58.7706 66.6269 50 66.6269C41.2294 66.6269 36.4424 59.9265 35.9265 59.1428C35.8112 58.9713 35.6632 58.8242 35.491 58.7099C35.3188 58.5956 35.1257 58.5163 34.9229 58.4765C34.5132 58.3963 34.0884 58.4821 33.742 58.7151C33.5705 58.8304 33.4234 58.9784 33.3091 59.1506C33.1947 59.3229 33.1154 59.5159 33.0757 59.7187C32.9955 60.1284 33.0813 60.5532 33.3143 60.8996C33.9412 61.8269 39.6163 69.7616 50 69.7616C60.3837 69.7616 66.0588 61.8269 66.6726 60.9192C66.9052 60.5752 66.9918 60.1531 66.9135 59.7454C66.8351 59.3377 66.5982 58.9777 66.2547 58.7445V58.7379Z" fill="#2F80ED" fill-opacity="0.2"/>
<path d="M41.8498 44.9779C43.9273 44.9779 45.6114 43.2938 45.6114 41.2163C45.6114 39.1388 43.9273 37.4547 41.8498 37.4547C39.7723 37.4547 38.0881 39.1388 38.0881 41.2163C38.0881 43.2938 39.7723 44.9779 41.8498 44.9779Z" fill="#2F80ED" fill-opacity="0.2"/>
<path d="M58.1501 44.9779C60.2276 44.9779 61.9117 43.2938 61.9117 41.2163C61.9117 39.1388 60.2276 37.4547 58.1501 37.4547C56.0726 37.4547 54.3884 39.1388 54.3884 41.2163C54.3884 43.2938 56.0726 44.9779 58.1501 44.9779Z" fill="#2F80ED" fill-opacity="0.2"/>
</svg>
